HIERARCHY
ROOT Hip
{
    OFFSET 0.0 0.0 0.0
    CHANNELS 6 Xposition Yposition Zposition Zrotation Xrotation Yrotation
    JOINT RightHip
    {
        OFFSET -6.542606559244554 0.0 0.0
        CHANNELS 3 Zrotation Xrotation Yrotation
        JOINT RightKnee
        {
            OFFSET 0.0 0.0 -23.028232539954956
            CHANNELS 3 Zrotation Xrotation Yrotation
            JOINT RightAnkle
            {
                OFFSET 0.0 0.0 -27.494365810787592
                CHANNELS 3 Zrotation Xrotation Yrotation
                End Site
                {
                    OFFSET 0.0 -10.997746324315036 0.0
                }
            }
        }
    }
    JOINT LeftHip
    {
        OFFSET 6.542606559244554 0.0 0.0
        CHANNELS 3 Zrotation Xrotation Yrotation
        JOINT LeftKnee
        {
            OFFSET 0.0 0.0 -23.028232539954956
            CHANNELS 3 Zrotation Xrotation Yrotation
            JOINT LeftAnkle
            {
                OFFSET 0.0 0.0 -27.494365810787592
                CHANNELS 3 Zrotation Xrotation Yrotation
                End Site
                {
                    OFFSET 0.0 -10.997746324315036 0.0
                }
            }
        }
    }
    JOINT Spine
    {
        OFFSET 0.0 0.0 19.10967155967023
        CHANNELS 3 Zrotation Xrotation Yrotation
        JOINT Thorax
        {
            OFFSET 0.0 0.0 22.024536852947453
            CHANNELS 3 Zrotation Xrotation Yrotation
            JOINT Neck
            {
                OFFSET 0.0 0.0 2.791699693308295
                CHANNELS 3 Zrotation Xrotation Yrotation
                JOINT Head
                {
                    OFFSET 0.0 0.0 9.454494295974149
                    CHANNELS 3 Zrotation Xrotation Yrotation
                    End Site
                    {
                        OFFSET -3.78179771838966 0.0 0.0
                    }
                }
            }
            JOINT LeftShoulder
            {
                OFFSET 11.790431298389517 0.0 0.0
                CHANNELS 3 Zrotation Xrotation Yrotation
                JOINT LeftElbow
                {
                    OFFSET 22.142788314077933 0.0 0.0
                    CHANNELS 3 Zrotation Xrotation Yrotation
                    JOINT LeftWrist
                    {
                        OFFSET 12.308158142996586 0.0 0.0
                        CHANNELS 3 Zrotation Xrotation Yrotation
                        End Site
                        {
                            OFFSET 4.923263257198636 0.0 0.0
                        }
                    }
                }
            }
            JOINT RightShoulder
            {
                OFFSET -11.790431298389517 0.0 0.0
                CHANNELS 3 Zrotation Xrotation Yrotation
                JOINT RightElbow
                {
                    OFFSET -22.142788314077933 0.0 0.0
                    CHANNELS 3 Zrotation Xrotation Yrotation
                    JOINT RightWrist
                    {
                        OFFSET -12.308158142996586 0.0 0.0
                        CHANNELS 3 Zrotation Xrotation Yrotation
                        End Site
                        {
                            OFFSET -4.923263257198636 0.0 0.0
                        }
                    }
                }
            }
            JOINT Nose
            {
                OFFSET 0.0 0.0 8.852197216540844
                CHANNELS 3 Zrotation Xrotation Yrotation
                End Site
                {
                    OFFSET -3.540878886616338 0.0 0.0
                }
            }
        }
    }
}
MOTION
Frames: 8
Frame Time: 0.03333333333333333
15.923721825442469 39.77116550587827 9.251108223928775 -21.638308965651685 -0.6475728584350798 -0.44955364377244317 4.366804353465019 -4.806168315016239 4.8904989683467335 0.8544376220600032 12.631624817918993 -10.042760029619265 0.0 0.0 -1.987846675914698e-16 -3.6453324457703 -8.099763499713251 -8.292337285957254 -0.28050719280369785 15.431921321036466 13.005037995800972 0.0 0.0 0.0 -6.359003830739049e-15 3.302409501079535 -1.6470705298854423e-16 -1.3447017780415913 -0.017018650731617034 -0.5837609455985797 -1.1388202866579953 -6.974903758300811 -36.34218394943428 -3.1805546814635176e-15 1.4345195468663017e-31 -5.168401357378216e-15 -55.93117656619032 54.837985972299755 -6.132365611366024 -4.707945167998519e-15 -4.2777289093907505e-15 -95.48223021856066 3.1805546814635168e-15 0.0 0.0 57.47224724047955 53.71599771455102 6.263301852153202 -7.016491886408795e-15 -1.1078791405122259e-14 87.23318714245613 0.0 0.0 2.3854160110976376e-15 0.0 0.0 1.987846675914698e-16
15.943543608323276 39.82067248773942 9.239427873878919 -22.49741710060982 -0.6408780569838348 -0.6255715924969055 5.208861762808827 -4.8399793331002074 4.970100996170992 0.8704334375137406 12.678199706432078 -10.317655227963915 0.0 0.0 -1.987846675914698e-16 -2.7640022889120943 -8.136849601438314 -8.172093464245528 -0.29692636655285903 15.469897789541529 12.851586075522603 3.1805546814635168e-15 -7.951386703658792e-16 -5.963540027744094e-16 3.1931656985506986e-15 3.3098189864166616 -3.905572633508952e-16 -0.15296715396693344 -0.010815485064191672 -0.3071676675680888 -1.4893969792090604 -6.989753125179059 -36.26920117816049 0.0 0.0 -2.782985346280577e-15 -56.26090064526849 55.00883715902147 -6.38877926681075 -1.1866491014528442e-14 -1.0587001135666466e-14 -96.5228316598612 -3.1805546814635168e-15 0.0 0.0 56.52813855126096 54.27954193585206 5.94074606860245 1.2282849828103815e-14 -3.676333965945807e-15 87.18469461052125 4.4139062980501586e-32 -6.3611093629270335e-15 7.951386703658792e-16 0.0 0.0 9.939233379573489e-17
15.97565039508255 39.900862555367006 9.220508359394296 -21.6641630454717 -0.6308574359100938 -0.2960110625441596 4.453614933702263 -4.760023250447229 4.89282087240667 0.8847768650822827 12.765342731229826 -10.281835450934832 0.0 0.0 0.0 -3.6172243303664366 -8.23810609666259 -8.491973591894777 -0.3335436020824249 15.561189474438121 13.279436232871895 0.0 0.0 0.0 -3.196847744601518e-15 3.3242041359877157 5.153590895628194e-16 -0.9392802925922474 -0.03228162215710146 -0.8416928758039737 -1.6536245710677298 -7.027279606944385 -37.337739900554666 0.0 0.0 3.1805546814635168e-15 -56.34690497108785 55.45506141113776 -6.266669275495383 -1.3247619111137389e-14 5.1787208383747885e-15 -95.832858918153 -1.5902773407317584e-15 0.0 0.0 54.50277219008637 55.86561904864184 6.813406110087233 1.6892027350813294e-14 6.59075329265377e-16 86.84059636795514 0.0 0.0 -1.5902773407317584e-15 0.0 0.0 -9.93923337957349e-17
15.939181690712589 39.809778140983106 9.241998214038924 -22.472057441667822 -0.6367950084194087 -0.45905505890128284 5.620705911839528 -4.657227219703794 5.033488237767128 0.620767595005118 12.663828486159227 -10.210570676208093 3.1805546814635168e-15 1.9878466759146977e-16 -5.963540027744094e-16 -2.742454101375818 -8.316280720137446 -8.552882326575057 -0.43748228799057703 15.679239283482229 13.016113850349079 0.0 0.0 0.0 1.4043058364331582e-18 3.2333829953172764 -4.975559214982589e-17 -0.16287893582711585 -0.034259239275691425 -0.7751086812783657 -1.9020226296968765 -6.994044022476658 -39.38575453196608 3.1805546814635168e-15 3.310429723537619e-32 1.1927080055488188e-15 -56.47444866667473 55.844909597434885 -6.0164588530644245 -2.4078008716640587e-14 1.2598104865863071e-14 -96.35105268104 1.5902773407317582e-15 -6.3611093629270335e-15 -3.1805546814635168e-15 53.27777874862934 56.31869401742163 7.3033974034878 -2.4329621779497166e-15 -6.682838876522733e-15 86.86069584050698 0.0 0.0 1.5902773407317588e-15 -4.310455369189608e-35 4.969616689786745e-17 9.93923337957349e-17
15.94003329804566 39.81190511962295 9.241496388758366 -22.53201791938742 -0.6315355808954883 -0.4875610851560086 5.461526588059716 -4.608109026299113 4.974573538831038 1.1340475142698716 12.479739940766674 -10.106391870964412 0.0 0.0 5.963540027744094e-16 -2.654793902454335 -8.476052318254682 -8.667803494275901 -0.5234731088310266 15.908812975423091 13.109111312583865 -2.758691436281349e-33 -1.5902773407317584e-15 -1.987846675914698e-16 3.18165980412354e-15 3.3065272393363156 7.601782423582677e-18 -0.5156177115959815 -0.03289553946509566 -0.8562288594777762 -1.5703672837883877 -6.95324686957508 -40.18070619415734 0.0 0.0 -1.987846675914698e-15 -55.99119299850643 56.00250441982567 -6.121985600970051 -2.3908529519063574e-15 -2.09755816227826e-15 -97.47734377564541 3.1805546814635168e-15 0.0 0.0 52.921862411071395 56.887598875519394 8.191309312152152 1.2181810202594094e-15 7.857517770454074e-15 88.63495384313511 0.0 0.0 -1.5902773407317584e-15 0.0 0.0 -1.987846675914698e-16
15.946716305528566 39.82859663179537 9.23755830371044 -22.55780492112787 -0.6478645704241033 -0.5261029257318088 5.197240270869331 -4.596540244613265 4.9112077629483535 1.1349451143740439 12.569343058677903 -10.076969222154744 0.0 0.0 -1.987846675914698e-16 -2.9166090879820032 -8.638723156354024 -8.801760603607482 -0.048548328048000695 16.195216796057988 13.13632457393779 0.0 0.0 0.0 -7.321302581624043e-19 3.370999015505638 2.488038264009359e-17 -0.5447862499621063 -0.03156491349632843 -0.8716840759768227 -1.5036091859072647 -6.879850380982955 -41.57770510973941 0.0 0.0 -3.975693351829396e-16 -55.89704751955236 55.91793513402493 -6.162639523594205 4.195734125609276e-15 -4.781163820066798e-15 -97.4625375955449 -1.5902773407317584e-15 0.0 0.0 52.49044557830932 57.453343195348396 8.114511872719012 -4.693934669169895e-15 -1.3427045056793201e-14 88.33186364789745 -3.1805546814635168e-15 0.0 0.0 0.0 0.0 5.963540027744094e-16
15.858106941255146 39.607285450243694 9.289773000977208 -22.473811356908147 -0.6521006254723142 -0.5141486340916926 5.1485941427857025 -4.490293067979644 4.790381117420758 1.1478593650984534 12.557518954367398 -9.98393053358953 0.0 0.0 -5.963540027744094e-16 -3.07717182693782 -8.756987980621663 -8.9315455403553 0.13938098649748548 16.606814312295413 13.395892194572657 0.0 0.0 0.0 6.504928304709829e-18 3.3280339510020687 -2.2391607108895727e-16 -0.5268284911783172 -0.034829518341399954 -0.8765216773907364 -1.6820689738470507 -6.993539368562844 -41.64520952817438 0.0 0.0 5.565970692561154e-15 -56.03600095884032 55.68885888715381 -6.113929933195344 2.3877889381879253e-15 2.101045470342533e-15 -97.31009290975501 1.5902773407317588e-15 0.0 0.0 53.32106449648891 56.69031820603213 7.90589459928232 -7.890875140812723e-15 -9.791016409064104e-16 87.88604044746891 -3.1805546814635168e-15 -8.827812596100317e-32 3.1805546814635168e-15 0.0 0.0 0.0
15.863780355800621 39.621455398158204 9.28642983713228 -22.539287938127416 -0.6678339458417407 -0.44925997902659 5.272270586191582 -4.384210203391372 4.689345656069937 1.3594255291984143 12.428181135057741 -10.066800769019805 0.0 0.0 1.987846675914698e-16 -2.778440164165252 -8.667866767905318 -8.921270229372304 0.14890590508497423 16.496231705449986 13.505504931420289 0.0 0.0 0.0 9.541388048174313e-15 3.306260322073195 1.4722337604269474e-16 -0.5195028871236947 -0.0383500609218227 -0.9031339467060899 -1.7797039041834914 -7.217387899133063 -41.36256199123084 0.0 0.0 2.3854160110976376e-15 -55.77921901817048 55.65108497152079 -6.1939851183705406 4.782066857327532e-15 4.194704864369786e-15 -97.48720387278982 -1.5902773407317584e-15 0.0 0.0 53.413036317174885 56.49533895550588 7.65107970426728 4.574441278708598e-15 4.420203537707832e-15 88.03520744625658 0.0 0.0 -1.5902773407317584e-15 0.0 0.0 -1.987846675914698e-16
